<svg width="200" height="200" viewBox="0 0 200 200" fill="none" xmlns="http://www.w3.org/2000/svg">
<path d="M145.164 0C145.195 0.0707393 145.212 0.144199 145.215 0.22038C144.526 0.80534 143.837 0.80534 143.148 0.22038C143.154 0.144199 143.168 0.0707393 143.199 0H145.164Z" fill="#ED3237"/>
<path d="M62.5159 103.423C62.5159 96.2619 62.5328 89.0982 62.4962 81.9372C62.4906 81.0176 62.6958 80.7047 63.708 80.7128C69.2271 80.7618 74.749 80.7727 80.268 80.7074C81.387 80.6938 81.5361 81.0584 81.5332 82.0106C81.5023 94.7492 81.5108 107.488 81.5136 120.226C81.5136 122.133 81.6063 124.033 82.1771 125.874C83.3017 129.52 86.2117 131.321 89.9539 130.709C93.696 130.1 96.2377 127.175 96.1983 123.63C96.1421 118.588 90.7861 114.763 85.6803 117.731C84.8171 118.232 84.4291 118.431 84.4432 117.106C84.5079 111.169 84.4882 105.229 84.4516 99.2901C84.446 98.4494 84.6709 98.161 85.565 98.0385C101.605 95.8375 115.584 107.907 115.556 123.643C115.531 137.723 103.118 149.809 87.3419 148.865C73.3601 148.027 63.1682 138.066 62.6705 124.495C62.4147 117.478 62.6255 110.445 62.6255 103.42H62.5131L62.5159 103.423Z" fill="#002169"/>
<path d="M123.826 114.235C123.826 103.54 123.851 92.8449 123.789 82.1523C123.781 80.909 124.149 80.694 125.333 80.7076C130.708 80.7702 136.09 80.7729 141.465 80.7076C142.663 80.694 142.908 81.0477 142.897 82.1496C142.837 88.1298 142.866 94.1127 142.874 100.096C142.874 100.395 142.705 100.806 143.003 100.974C143.327 101.157 143.58 100.768 143.827 100.604C147.308 98.3272 151.118 97.3477 155.276 98.0687C162.347 99.293 165.898 103.929 167.596 110.271C168.209 112.568 168.31 114.926 168.313 117.285C168.319 127.028 168.299 137.588 168.341 147.33C168.347 148.408 168.139 148.802 166.916 148.789C161.492 148.718 156.066 148.721 150.642 148.789C149.47 148.802 149.293 148.411 149.298 147.409C149.335 139.389 149.329 130.552 149.307 122.531C149.304 121.356 149.225 120.172 149.048 119.013C148.823 117.517 148.028 116.85 146.549 116.711C144.929 116.559 143.85 117.144 143.287 118.488C142.891 119.432 142.871 120.43 142.871 121.429C142.871 129.812 142.846 139.013 142.899 147.396C142.908 148.558 142.545 148.8 141.415 148.786C136.036 148.729 130.658 148.707 125.282 148.797C123.964 148.819 123.798 148.397 123.8 147.279C123.843 136.54 123.826 124.982 123.826 114.244V114.235Z" fill="#002169"/>
<path d="M0.149643 126.754C0.0512389 125.834 0.000630951 124.901 0.000630951 123.957C-0.0021806 121.709 -0.0162384 119.541 0.512334 117.343C0.942502 115.547 1.58354 113.803 2.41576 112.146C4.05489 108.881 6.43066 105.975 9.31813 103.663C13.7351 100.126 19.3301 98.0198 25.0741 97.8865C31.5322 97.726 37.6474 98.7871 42.9556 102.626C48.4719 106.617 51.2834 112.113 52.2703 118.608C52.7285 121.628 52.6105 124.664 52.6189 127.698C52.6358 133.996 52.588 141.111 52.6554 147.407C52.6667 148.593 52.2703 148.794 51.1541 148.781C45.8234 148.724 40.4927 148.721 35.1648 148.781C33.9755 148.794 33.5875 148.571 33.6015 147.322C33.6746 140.436 33.6409 132.734 33.6353 125.845C33.6353 124.21 33.52 122.588 32.8986 121.04C31.4844 117.528 27.9166 115.862 24.2447 117.008C20.5897 118.145 18.5063 121.886 19.4032 125.703C20.2101 129.142 23.5587 131.292 27.239 130.726C28.1162 130.59 28.999 130.424 29.775 129.994C30.5088 129.589 30.7141 129.744 30.7 130.549C30.6606 132.677 30.686 134.807 30.686 136.937C30.686 140.425 30.6522 143.916 30.7084 147.404C30.7225 148.321 30.4442 148.664 29.5023 148.762C21.942 149.562 14.2187 147.54 8.47466 142.629C3.57974 138.442 0.799113 132.864 0.146832 126.754H0.149643Z" fill="#002169"/>
<path d="M87.8125 3.23873C99.2584 2.84966 110.775 5.87241 121.97 10.3426C123.263 10.8595 124.512 11.4744 125.656 12.2743C126.21 12.6607 126.336 13.0035 125.901 13.5857C124.039 16.0888 121.981 18.4314 119.87 20.7358C119.204 21.465 118.593 21.0868 117.992 20.8338C114.224 19.2449 110.412 17.792 106.436 16.7554C65.9443 6.20434 22.8544 30.5087 14.594 71.7008C13.8349 75.4908 13.4638 79.3189 13.2979 83.1688C13.2557 84.1265 13.1461 85.0651 12.834 85.9738C11.8893 88.7436 9.70471 90.2073 7.04217 89.8618C3.86792 89.451 2.11351 87.7614 1.99824 84.6788C1.68897 76.3043 3.13129 68.1666 5.96534 60.2737C15.7186 33.1533 34.7191 15.1882 62.964 6.47641C70.7689 4.06855 78.8212 3.08637 87.8125 3.23873Z" fill="#002169"/>
<path d="M145.216 0.217914C144.527 0.217914 143.838 0.217914 143.149 0.217914C142.303 0.272329 141.676 0.756622 141.06 1.24363C139.606 2.39995 138.386 3.77937 137.231 5.20232C125.757 19.3366 113.619 32.9485 102.081 47.0338C96.5334 53.8084 90.7501 60.4035 85.1185 67.1156C84.2975 68.0923 84.1542 67.1237 83.8955 66.8163C78.95 60.964 74.0326 55.0899 69.0955 49.2294C68.5978 48.6363 68.0468 48.0622 67.4282 47.5942C66.7338 47.0691 65.9212 47.1208 65.2183 47.635C64.4873 48.171 64.1528 48.8948 64.4733 49.7844C64.5942 50.1218 64.7741 50.4483 64.9765 50.7503C71.3082 60.1505 77.5892 69.5833 84.0192 78.9209C86.2094 82.1042 89.5074 83.4727 93.4885 82.9993C96.868 82.5993 99.0863 80.6322 100.891 77.9605C116.512 54.8668 132.176 31.7976 147.819 8.7148C148.176 8.18698 148.519 7.63738 148.772 7.05787C150.094 4.04872 148.522 1.04502 145.213 0.207031L145.216 0.217914Z" fill="#ED3237"/>
<path d="M132.503 170.804C132.503 171.234 132.503 171.663 132.503 172.096C132.503 180.707 132.483 189.863 132.528 198.474C132.534 199.538 132.253 199.883 131.134 199.842C128.845 199.761 126.548 199.75 124.259 199.842C123.011 199.894 122.609 199.592 122.617 198.302C122.674 187.063 122.651 175.279 122.651 164.04C122.651 162.228 122.682 160.413 122.637 158.601C122.62 157.883 122.873 157.671 123.601 157.676C127.389 157.703 131.179 157.722 134.966 157.665C135.877 157.652 136.158 158.155 136.506 158.762C140.507 165.719 144.519 172.67 148.529 179.624C148.666 179.861 148.787 180.109 148.939 180.334C149.088 180.555 149.327 180.955 149.42 180.928C149.853 180.802 149.611 180.403 149.611 180.13C149.625 173.195 149.673 166.26 149.583 159.328C149.563 157.902 149.991 157.589 151.363 157.657C153.601 157.769 155.853 157.741 158.094 157.665C159.17 157.627 159.508 157.899 159.499 158.996C159.446 166.701 159.471 174.406 159.471 182.108C159.471 187.411 159.44 193.258 159.496 198.561C159.508 199.592 159.215 199.869 158.169 199.84C155.552 199.769 152.932 199.774 150.314 199.84C149.383 199.861 148.917 199.551 148.472 198.77C143.473 189.969 138.43 180.647 133.397 171.865C133.18 171.489 132.955 171.119 132.736 170.747C132.657 170.766 132.581 170.787 132.503 170.806V170.804Z" fill="#ED3237"/>
<path d="M74.6405 170.089C72.6274 163.701 68.306 159.424 61.5977 157.588C58.6399 156.78 55.5978 156.673 52.5529 156.932C44.6131 157.612 38.9703 161.432 36.0069 168.661C34.1737 173.137 34.0247 177.822 34.5477 182.572C34.8401 185.228 35.5823 187.848 36.8616 190.22C38.0565 192.435 39.7181 194.402 41.7425 195.953C43.8314 197.553 46.2691 198.687 48.836 199.362C50.2446 199.732 51.5801 199.958 53.0393 199.974C55.0074 199.996 57.0233 200.067 58.9773 199.822C60.847 199.588 62.6773 199.082 64.4008 198.344C64.5245 198.29 65.5226 197.928 65.5226 197.827C67.8815 196.652 69.9508 194.981 71.5421 192.925C73.0941 190.919 74.1681 188.599 74.8373 186.185C76.3274 180.825 76.3105 175.403 74.6376 170.092L74.6405 170.089ZM62.9669 187.268C61.2828 190.454 58.6905 192.293 54.9511 192.261C51.2033 192.225 48.4986 190.356 47.0928 187.072C44.5934 181.239 44.6496 175.302 47.27 169.521C48.6982 166.365 51.3861 164.621 55.0327 164.64C58.6371 164.661 61.2546 166.346 62.8797 169.453C64.3755 172.315 64.7607 175.4 64.71 178.589C64.7354 181.576 64.4205 184.517 62.9669 187.268Z" fill="#ED3237"/>
<path d="M198.461 123.498C198.461 131.198 198.442 139.714 198.484 147.414C198.49 148.439 198.282 148.799 197.126 148.785C191.657 148.72 186.189 148.717 180.721 148.785C179.54 148.801 179.388 148.396 179.391 147.408C179.419 131.919 179.419 115.611 179.391 100.122C179.391 99.1722 179.528 98.794 180.653 98.8049C186.167 98.8702 191.683 98.8648 197.199 98.8076C198.304 98.7968 198.49 99.1532 198.484 100.124C198.445 107.914 198.461 115.706 198.461 123.496V123.498Z" fill="#002169"/>
<path d="M183.343 199.969C183.158 199.969 182.969 199.964 182.784 199.961C181.842 199.961 180.903 199.966 179.961 199.966C179.587 199.966 179.213 199.961 178.839 199.961C174.746 199.716 170.838 198.734 167.022 197.3C166.075 196.944 165.777 196.473 165.802 195.515C165.872 193.069 165.813 190.621 165.836 188.175C165.839 187.756 165.586 187.198 166.111 186.95C166.66 186.692 167.062 187.13 167.469 187.432C171.546 190.466 176.084 192.297 181.285 192.351C183.02 192.37 184.749 192.248 186.355 191.521C187.839 190.846 188.907 189.856 188.944 188.128C188.978 186.442 187.946 185.443 186.532 184.768C184.198 183.658 181.611 183.394 179.123 182.812C176.48 182.194 173.894 181.444 171.552 180.064C164.855 176.122 164.025 166.567 169.935 161.484C173.292 158.597 177.321 157.286 181.713 156.995C186.956 156.649 192.045 157.449 196.991 159.18C197.89 159.495 198.323 159.884 198.281 160.91C198.186 163.264 198.267 165.622 198.236 167.979C198.231 168.379 198.543 168.939 197.932 169.165C197.435 169.35 197.075 168.996 196.69 168.724C192.723 165.919 188.351 164.314 183.366 164.561C181.895 164.635 180.492 164.956 179.216 165.661C177.878 166.401 177 167.44 177.121 169.061C177.234 170.571 178.176 171.404 179.511 171.954C181.808 172.9 184.271 173.23 186.669 173.806C189.349 174.449 191.947 175.267 194.412 176.516C201.961 180.339 201.45 191.404 195.337 195.964C191.775 198.622 187.704 199.651 183.346 199.966L183.343 199.969Z" fill="#ED3237"/>
<path d="M118.312 198.7C113.678 185.512 108.797 171.772 104.22 158.569C103.978 157.878 103.633 157.66 102.916 157.682C101.327 157.725 99.7358 157.695 98.1445 157.695C96.5532 157.695 94.869 157.736 93.2355 157.676C92.4005 157.646 92.0041 157.888 91.7454 158.702C91.0341 160.949 90.2019 163.159 89.4259 165.387C85.6556 176.183 81.6069 187.52 77.8395 198.316C77.4889 199.317 77.8779 199.819 79.0063 199.821C81.6716 199.823 84.3398 199.785 87.0023 199.842C87.8683 199.861 88.231 199.554 88.4587 198.784C89.0688 196.694 90.0782 194.096 90.6686 192.001C90.9048 191.169 91.2506 190.839 92.1868 190.853C95.974 190.907 99.764 190.902 103.551 190.856C104.411 190.845 104.783 191.128 105.01 191.9C105.634 194.031 106.644 196.678 107.26 198.811C107.49 199.608 107.889 199.856 108.73 199.842C111.632 199.791 114.53 199.796 117.432 199.837C118.382 199.85 118.66 199.693 118.312 198.7ZM101.479 183.265C99.0498 183.257 96.6206 183.259 94.1943 183.262C93.7669 183.262 93.4295 183.219 93.6095 182.661C94.9956 178.365 96.376 174.066 97.8549 169.463C99.3197 174.05 100.675 178.319 102.061 182.579C102.266 183.208 101.985 183.268 101.479 183.265Z" fill="#ED3237"/>
<path d="M172.129 83.5642C172.14 85.0171 172.115 86.4618 171.839 87.8984C171.336 90.5185 169.064 92.4012 166.334 92.4257C163.753 92.4502 161.513 90.6844 160.886 88.1596C160.565 86.8672 160.548 85.5558 160.531 84.2417C160.332 68.1294 154.855 53.8537 144.615 41.2322C142.591 38.7372 140.519 36.2777 138.022 34.199C136.954 33.3094 136.687 32.5149 137.687 31.2688C139.321 29.2364 140.769 27.0598 142.177 24.8696C142.771 23.95 143.302 23.9663 144.036 24.5404C144.761 25.109 145.509 25.6613 146.17 26.298C159.584 39.2569 167.943 54.7543 171.035 72.8908C171.64 76.4277 172.042 79.9783 172.123 83.5642H172.129Z" fill="#002169"/>
<path d="M2.95126 178.457C2.95126 171.982 2.97657 165.504 2.92596 159.028C2.91753 157.967 3.2043 157.633 4.3233 157.665C7.03083 157.744 9.74679 157.752 12.4543 157.663C13.6127 157.625 13.8151 158.016 13.8123 159.039C13.7758 169.275 13.8123 180.054 13.7589 190.29C13.7533 191.511 14.0485 191.871 15.3474 191.852C20.3464 191.773 25.3481 191.843 30.3499 191.8C31.3367 191.792 31.6404 192.08 31.6066 193.024C31.5392 194.923 31.5532 196.828 31.6038 198.73C31.6263 199.538 31.4042 199.84 30.5101 199.837C21.6762 199.81 12.8423 199.804 4.01122 199.84C2.94002 199.845 2.94283 199.317 2.94564 198.569C2.9597 192.047 2.95408 184.982 2.95408 178.46L2.95126 178.457Z" fill="#ED3237"/>
<path d="M198.519 85.9216C198.508 91.023 194.549 94.6416 188.996 94.6307C183.48 94.6198 179.476 90.9223 179.496 85.859C179.513 81.008 183.865 76.9677 189.061 76.9785C194.262 76.9894 198.53 81.0243 198.519 85.9216Z" fill="#002169"/>
<path d="M40.0925 81.0127C39.5021 79.402 38.5124 78.0416 36.5612 77.9682C32.6531 77.8212 28.7451 77.3016 24.8258 77.7804C24.1229 77.8675 23.3919 77.9763 22.8689 78.4334C20.9599 80.1067 20.4791 82.2642 20.9486 84.6177C21.4238 87.0038 22.8549 88.2662 25.2025 88.7042C27.2015 89.077 29.2062 88.7858 31.208 88.9192C32.6981 88.9192 34.1939 88.979 35.684 88.9028C37.6212 88.8022 39.2181 88.0866 39.966 86.1875C40.638 84.4789 40.7251 82.7322 40.0925 81.0127ZM38.8161 85.9127C38.4646 86.7698 37.7898 87.3003 36.8958 87.5561C36.4937 87.6703 36.072 87.7819 35.6587 87.7792C32.3945 87.7492 29.1303 87.7275 25.866 87.6268C24.0526 87.5697 22.7761 86.6745 22.2419 84.9469C21.6206 82.9444 21.9271 81.0889 23.3919 79.5054C23.8839 78.9721 24.6346 78.9313 25.3347 78.8633C27.1059 78.6946 28.8772 78.6919 30.0749 78.798C32.4704 78.8987 34.2923 78.9939 36.1114 79.0456C37.3878 79.081 38.2088 79.7312 38.7289 80.7814C39.5611 82.471 39.5218 84.1905 38.8161 85.9127Z" fill="#002169"/>
<path d="M45.72 57.1066C42.349 54.9328 39.0932 52.563 35.3651 50.955C34.6847 50.6612 33.9396 50.4163 33.1889 50.6149C30.6698 51.2788 29.1572 52.9521 28.4065 55.3082C27.7036 57.5093 28.3193 59.4057 30.2284 60.7089C33.1946 62.7386 36.3885 64.4336 39.574 66.1232C40.9741 66.8659 42.4896 66.8007 43.811 65.8566C45.796 64.4418 46.9346 62.5427 47.0162 60.1158C47.0415 58.9214 46.7716 57.7841 45.72 57.1066ZM45.8409 60.1947C45.7369 62.2271 44.7444 63.8078 43.0659 64.9723C42.0566 65.6743 40.8926 65.5926 39.8748 65.0213C36.8889 63.348 33.8946 61.6829 31.0128 59.8519C29.309 58.7717 28.9322 57.2835 29.5845 55.4334C30.2396 53.5778 31.4626 52.2066 33.5095 51.7168C34.0746 51.5781 34.6172 51.8692 35.1177 52.0896C38.6237 53.6323 41.6658 55.9095 44.8878 57.9011C45.7144 58.4126 45.9028 59.2751 45.8409 60.1947Z" fill="#002169"/>
<path d="M146.647 58.5738C146.599 53.6411 142.165 51.021 137.883 53.2085C134.99 54.6832 132.37 56.5822 129.598 58.2473C127.975 59.2214 127.565 60.7695 127.849 62.508C128.113 64.1187 128.909 65.4845 130.084 66.6408C131.602 68.1345 133.424 68.6351 135.308 67.6393C138.49 65.9579 141.589 64.1105 144.642 62.2087C145.992 61.368 146.714 60.0213 146.647 58.5738ZM143.804 61.417C140.886 63.1964 137.939 64.9404 134.928 66.5646C133.39 67.3945 132.097 67.0353 130.88 65.8028C130.03 64.9404 129.392 63.9582 129.114 62.7719C128.667 60.8511 129.046 59.8961 130.739 58.8649C133.303 57.3005 135.819 55.649 138.46 54.2125C141.904 52.3379 145.497 54.5716 145.474 58.4541C145.522 59.7628 144.864 60.7722 143.804 61.417Z" fill="#002169"/>
<path d="M93.4822 22.1314C93.426 21.2336 93.2966 20.3303 92.6809 19.5794C91.3285 17.9279 88.1768 17.1525 85.7307 17.8735C83.8639 18.423 82.3625 20.012 82.1123 21.9083C81.7608 24.5692 81.8339 27.3552 81.6962 30.0352C81.5921 32.0866 81.5275 34.723 83.7261 35.8004C86.1665 36.9976 88.6407 37.0765 91.0671 35.6971C92.0989 35.1094 92.799 34.2197 92.8665 33.0906C93.0858 29.4393 93.7127 25.8044 93.4822 22.1314ZM92.068 28.683C92.0146 29.8583 91.8655 31.0283 91.8178 32.2036C91.7559 33.6919 91.0108 34.6414 89.5826 35.1583C87.8675 35.7787 86.189 35.6426 84.5499 34.9488C83.5237 34.5135 82.981 33.6701 82.8686 32.6144C82.7898 31.8989 82.8517 31.1697 82.8517 30.446C83.0654 28.0572 83.0373 25.6548 83.116 23.2578C83.175 21.5056 83.6136 19.8841 85.5002 19.1549C87.5526 18.3632 89.5235 18.6135 91.3342 19.8786C91.9077 20.2813 92.0989 20.8608 92.2114 21.5084C92.6331 23.9108 92.1776 26.2942 92.068 28.683Z" fill="#002169"/>
<path d="M65.1169 38.0222C62.907 34.8389 60.9558 31.4761 58.2792 28.6138C57.6466 27.9364 56.924 27.3133 55.9344 27.248C53.2325 27.0657 51.1294 28.1676 49.5915 30.2653C48.197 32.1671 48.4219 34.1397 49.7096 35.9626C51.5512 38.5718 53.4771 41.1265 55.4367 43.6514C56.3055 44.7696 57.4892 45.4933 59.0271 45.4552C61.6615 45.4416 64.8161 43.0202 65.4009 40.5253C65.6005 39.6737 65.6371 38.7704 65.1169 38.0222ZM64.3072 40.0437C63.9754 42.1006 61.1245 44.3778 58.9427 44.337C57.8237 44.3125 56.9718 43.7521 56.3449 42.9331C54.4218 40.43 52.5099 37.9188 50.6852 35.3504C49.6955 33.9547 49.4566 32.4174 50.5531 30.9129C51.7986 29.207 53.4968 28.301 55.6729 28.3608C56.4208 28.3799 56.9494 28.8832 57.4245 29.392C60.0111 32.1562 61.8668 35.4239 64.0373 38.4711C64.3747 38.9418 64.3972 39.4968 64.3072 40.0437Z" fill="#002169"/>
</svg>
