<svg width="457" height="457" viewBox="0 0 457 457" fill="none" xmlns="http://www.w3.org/2000/svg">
<path d="M457 349.512H0V349.74H457V349.512Z" fill="#EBEBEB"/>
<path d="M71.709 358.217H47.9478V358.445H71.709V358.217Z" fill="#EBEBEB"/>
<path d="M183.197 355.736H133.749V355.965H183.197V355.736Z" fill="#EBEBEB"/>
<path d="M96.6773 366.705H72.6235V366.934H96.6773V366.705Z" fill="#EBEBEB"/>
<path d="M411.21 365.17H393.629V365.398H411.21V365.17Z" fill="#EBEBEB"/>
<path d="M385.492 365.17H357.805V365.398H385.492V365.17Z" fill="#EBEBEB"/>
<path d="M285.884 361.311H236.02V361.539H285.884V361.311Z" fill="#EBEBEB"/>
<path d="M216.631 308.75H40.1385C37.2621 308.75 34.9214 306.409 34.9214 303.533V55.4437C34.9214 52.5673 37.2621 50.2266 40.1385 50.2266H216.631C219.506 50.2266 221.847 52.5673 221.847 55.4437V303.533C221.847 306.409 219.506 308.75 216.631 308.75ZM40.1385 50.456C37.3874 50.456 35.1499 52.6934 35.1499 55.4446V303.533C35.1499 306.285 37.3874 308.522 40.1385 308.522H216.631C219.381 308.522 221.619 306.285 221.619 303.533V55.4437C221.619 52.6934 219.381 50.4551 216.631 50.4551L40.1385 50.456Z" fill="#EBEBEB"/>
<path d="M414.325 308.75H237.834C234.958 308.75 232.618 306.409 232.618 303.533V55.4437C232.618 52.5673 234.958 50.2266 237.834 50.2266H414.325C417.203 50.2266 419.543 52.5673 419.543 55.4437V303.533C419.543 306.409 417.203 308.75 414.325 308.75ZM237.834 50.456C235.084 50.456 232.846 52.6934 232.846 55.4446V303.533C232.846 306.285 235.084 308.522 237.834 308.522H414.325C417.077 308.522 419.314 306.285 419.314 303.533V55.4437C419.314 52.6934 417.077 50.4551 414.325 50.4551L237.834 50.456Z" fill="#EBEBEB"/>
<path d="M403.306 253.492H378.168V349.513H403.306V253.492Z" fill="#E6E6E6"/>
<path d="M398.531 349.514H403.306V335.934H393.525L398.531 349.514Z" fill="#F0F0F0"/>
<path d="M259.877 253.492H234.74V349.513H259.877V253.492Z" fill="#E6E6E6"/>
<path d="M403.306 253.492H255.71V341.18H403.306V253.492Z" fill="#F0F0F0"/>
<path d="M260.619 257.94V324.203H304.371V257.94H260.619Z" fill="#E6E6E6"/>
<path d="M286.822 261.739H278.167C274.407 261.739 270.813 260.193 268.227 257.463H296.763C294.176 260.192 290.583 261.739 286.822 261.739Z" fill="#F0F0F0"/>
<path d="M307.633 257.938V324.201H351.385V257.938H307.633Z" fill="#E6E6E6"/>
<path d="M334.279 261.739H325.623C321.863 261.739 318.269 260.193 315.684 257.463H344.22C341.633 260.192 338.038 261.739 334.279 261.739Z" fill="#F0F0F0"/>
<path d="M354.646 257.94V324.203H398.399V257.94H354.646Z" fill="#E6E6E6"/>
<path d="M381.292 261.739H372.637C368.876 261.739 365.282 260.193 362.697 257.463H391.233C388.647 260.192 385.052 261.739 381.292 261.739Z" fill="#F0F0F0"/>
<path d="M260.485 349.514H255.71V335.934H265.491L260.485 349.514Z" fill="#F0F0F0"/>
<path d="M200.861 67.6289H62.3857V197.323H200.861V67.6289Z" fill="#E6E6E6"/>
<path d="M205.833 67.6289H64.709V197.323H205.833V67.6289Z" fill="#F0F0F0"/>
<path d="M200.861 197.322H62.3857V206.564H200.861V197.322Z" fill="#E6E6E6"/>
<path d="M214.119 197.322H72.9946V206.564H214.119V197.322Z" fill="#F0F0F0"/>
<path d="M198.872 190.361L198.872 74.5918L71.672 74.5918L71.672 190.361L198.872 190.361Z" fill="#FAFAFA"/>
<path d="M84.9907 190.361L125.855 74.5918H145.146L104.282 190.361H84.9907Z" fill="white"/>
<path d="M74.8947 151.082C75.1698 151.082 75.3919 150.859 75.3919 150.585V79.1203C75.3919 78.8461 75.1698 78.623 74.8947 78.623C74.6196 78.623 74.3975 78.8461 74.3975 79.1203V150.584C74.3975 150.859 74.6196 151.082 74.8947 151.082Z" fill="#F0F0F0"/>
<path d="M108.426 190.361L149.289 74.5918H156.809L115.945 190.361H108.426Z" fill="white"/>
<path d="M198.871 190.361L198.871 74.5918H197.987L197.987 190.361H198.871Z" fill="#E6E6E6"/>
<path opacity="0.5" d="M207.48 86.5904H69.004L68.3633 77.2969H206.839L207.48 86.5904Z" fill="#E6E6E6"/>
<path opacity="0.5" d="M207.48 93.3932H69.004L68.3633 84.0996H206.839L207.48 93.3932Z" fill="#E6E6E6"/>
<path opacity="0.5" d="M207.48 101.555H69.004L68.3633 92.2617H206.839L207.48 101.555Z" fill="#E6E6E6"/>
<path opacity="0.5" d="M207.48 110.639H69.004L68.3633 101.346H206.839L207.48 110.639Z" fill="#E6E6E6"/>
<path opacity="0.5" d="M207.48 121.521H69.004L68.3633 112.229H206.839L207.48 121.521Z" fill="#E6E6E6"/>
<path opacity="0.5" d="M207.48 133.765H69.004L68.3633 124.473H206.839L207.48 133.765Z" fill="#E6E6E6"/>
<path d="M208.963 263.412H167.98V349.514H208.963V263.412Z" fill="#E6E6E6"/>
<path d="M204.841 349.513H208.963V337.787H200.519L204.841 349.513Z" fill="#F0F0F0"/>
<path d="M108.15 263.412H67.167V349.514H108.15V263.412Z" fill="#E6E6E6"/>
<path d="M208.963 263.412H104.552V342.319H208.963V263.412Z" fill="#F0F0F0"/>
<path d="M205.765 266.91H107.75V288.549H205.765V266.91Z" fill="#E6E6E6"/>
<path d="M161.388 273.634H152.128C148.107 273.634 144.261 270.965 141.495 266.252H172.02C169.255 270.965 165.409 273.634 161.388 273.634Z" fill="#F0F0F0"/>
<path d="M108.674 349.513H104.552V337.787H112.997L108.674 349.513Z" fill="#F0F0F0"/>
<path d="M205.765 292.045H107.75V313.684H205.765V292.045Z" fill="#E6E6E6"/>
<path d="M161.388 298.771H152.128C148.107 298.771 144.261 296.101 141.495 291.389H172.02C169.255 296.102 165.409 298.771 161.388 298.771Z" fill="#F0F0F0"/>
<path d="M205.765 317.184H107.75V338.823H205.765V317.184Z" fill="#E6E6E6"/>
<path d="M161.388 323.908H152.128C148.107 323.908 144.261 321.238 141.495 316.525H172.02C169.255 321.238 165.409 323.908 161.388 323.908Z" fill="#F0F0F0"/>
<path d="M374.433 85.4316H294.864V191.856H374.433V85.4316Z" fill="#E6E6E6"/>
<path d="M379.606 85.4316H295.979V191.856H379.606V85.4316Z" fill="#F0F0F0"/>
<path d="M368.029 180.28V97.0078L307.554 97.0078V180.28H368.029Z" fill="white"/>
<path d="M368.029 180.28V97.0078H367.123V180.28H368.029Z" fill="#E6E6E6"/>
<path d="M338.919 121.029H320.849C320.478 121.029 320.177 121.331 320.177 121.702V139.772C320.177 148.862 327.574 156.259 336.664 156.259H354.734C355.105 156.259 355.407 155.957 355.407 155.586V137.516C355.407 128.425 348.011 121.029 338.919 121.029ZM336.664 154.914C328.315 154.914 321.523 148.121 321.523 139.773V122.376H338.92C347.27 122.376 354.061 129.168 354.061 137.517L336.664 154.914Z" fill="#F0F0F0"/>
<path d="M228.5 390.79C326.373 390.79 405.715 386.157 405.715 380.441C405.715 374.725 326.373 370.092 228.5 370.092C130.627 370.092 51.2856 374.725 51.2856 380.441C51.2856 386.157 130.627 390.79 228.5 390.79Z" fill="#F5F5F5"/>
<path d="M225.387 80.4615C224.551 75.4153 227.964 71.3242 233.01 71.3242H223.872H196.146C191.099 71.3242 187.686 75.4153 188.523 80.4615H225.387Z" fill="#407BFF"/>
<path opacity="0.3" d="M225.387 80.4615C224.551 75.4153 227.964 71.3242 233.01 71.3242H223.872H196.146C191.099 71.3242 187.686 75.4153 188.523 80.4615H225.387Z" fill="black"/>
<path d="M233.011 71.3242H205.285H196.147C201.194 71.3242 205.963 75.4153 206.8 80.4615L214.878 129.196C215.714 134.242 220.484 138.333 225.53 138.333H244.119C249.165 138.333 252.579 134.242 251.742 129.196L243.664 80.4615C242.826 75.4153 238.057 71.3242 233.011 71.3242Z" fill="#1A73E9"/>
<path d="M233.153 129.195C233.989 134.242 230.576 138.333 225.53 138.333H234.668H262.394C267.441 138.333 270.854 134.242 270.018 129.195H233.153Z" fill="#407BFF"/>
<path opacity="0.3" d="M233.153 129.195C233.989 134.242 230.576 138.333 225.53 138.333H234.668H262.394C267.441 138.333 270.854 134.242 270.018 129.195H233.153Z" fill="black"/>
<path d="M239.086 84.6595H212.767C212.466 84.6595 212.179 84.4137 212.13 84.113C212.079 83.8123 212.285 83.5664 212.586 83.5664H238.905C239.206 83.5664 239.493 83.8123 239.542 84.113C239.593 84.4137 239.387 84.6595 239.086 84.6595Z" fill="white"/>
<path d="M224.503 88.4662H213.398C213.097 88.4662 212.81 88.2203 212.761 87.9196C212.711 87.6189 212.916 87.373 213.217 87.373H224.322C224.623 87.373 224.91 87.6189 224.959 87.9196C225.01 88.2203 224.804 88.4662 224.503 88.4662Z" fill="white"/>
<path d="M234.776 88.4662H227.105C226.804 88.4662 226.517 88.2203 226.467 87.9196C226.416 87.6189 226.622 87.373 226.923 87.373H234.594C234.895 87.373 235.182 87.6189 235.231 87.9196C235.281 88.2203 235.076 88.4662 234.776 88.4662Z" fill="white"/>
<path d="M240.348 92.2709H214.029C213.728 92.2709 213.441 92.025 213.392 91.7243C213.342 91.4236 213.547 91.1777 213.848 91.1777H240.167C240.468 91.1777 240.755 91.4236 240.805 91.7243C240.854 92.025 240.649 92.2709 240.348 92.2709Z" fill="white"/>
<path d="M238.381 96.0775H214.66C214.359 96.0775 214.072 95.8317 214.023 95.531C213.972 95.2302 214.178 94.9844 214.479 94.9844H238.2C238.501 94.9844 238.788 95.2302 238.838 95.531C238.887 95.8307 238.682 96.0775 238.381 96.0775Z" fill="white"/>
<path d="M231.251 99.8822H215.29C214.989 99.8822 214.702 99.6363 214.653 99.3356C214.603 99.0349 214.808 98.7891 215.109 98.7891H231.07C231.371 98.7891 231.658 99.0349 231.707 99.3356C231.758 99.6354 231.552 99.8822 231.251 99.8822Z" fill="white"/>
<path d="M242.241 103.689H215.921C215.62 103.689 215.333 103.443 215.284 103.142C215.234 102.842 215.439 102.596 215.74 102.596H242.06C242.36 102.596 242.647 102.842 242.698 103.142C242.747 103.443 242.541 103.689 242.241 103.689Z" fill="white"/>
<path d="M242.871 107.494H216.551C216.251 107.494 215.964 107.248 215.914 106.947C215.864 106.646 216.07 106.4 216.37 106.4H242.69C242.991 106.4 243.278 106.646 243.328 106.947C243.377 107.248 243.172 107.494 242.871 107.494Z" fill="white"/>
<path d="M233.144 111.3H217.183C216.882 111.3 216.595 111.054 216.545 110.754C216.496 110.453 216.7 110.207 217.001 110.207H232.962C233.263 110.207 233.55 110.453 233.599 110.754C233.65 111.054 233.445 111.3 233.144 111.3Z" fill="white"/>
<path d="M248.258 121.767L249.902 122.787L275.163 82.0607L273.519 81.0408L248.258 121.767Z" fill="#263238"/>
<path opacity="0.3" d="M248.258 121.767L249.902 122.787L275.163 82.0607L273.519 81.0408L248.258 121.767Z" fill="black"/>
<path d="M244.968 119.726L246.612 120.746L271.873 80.0197L270.229 78.9998L244.968 119.726Z" fill="#263238"/>
<path opacity="0.3" d="M244.968 119.726L246.612 120.746L271.873 80.0197L270.229 78.9998L244.968 119.726Z" fill="black"/>
<path d="M246.618 120.742L248.262 121.762L273.523 81.0353L271.879 80.0154L246.618 120.742Z" fill="#263238"/>
<path d="M244.925 123.65L246.405 124.569L249.902 122.785L244.969 119.725L244.925 123.65Z" fill="#FF8B7B"/>
<path d="M244.906 125.333L246.405 124.569L244.925 123.65L244.906 125.333Z" fill="#263238"/>
<path d="M243.997 125.677C243.974 125.677 243.951 125.674 243.928 125.666C242.661 125.263 241.701 124.288 240.773 123.345C240.223 122.786 239.656 122.21 239.044 121.78C238.772 121.589 238.514 121.639 238.378 121.774C238.261 121.891 238.199 122.108 238.379 122.37C238.602 122.693 238.843 123.009 239.095 123.311C239.3 123.556 239.329 123.88 239.17 124.118C239.019 124.346 238.734 124.434 238.453 124.345C238.107 124.237 237.763 124.104 237.428 123.953C237.345 123.915 237.271 123.92 237.224 123.966C237.175 124.015 237.169 124.094 237.205 124.179L237.253 124.29C237.361 124.552 237.335 124.825 237.183 125.039C237.034 125.249 236.783 125.363 236.51 125.348C232.527 125.121 228.802 125.201 224.432 125.39C224.299 125.393 224.199 125.298 224.194 125.172C224.188 125.046 224.286 124.939 224.412 124.933C228.796 124.743 232.536 124.664 236.535 124.891C236.65 124.898 236.753 124.856 236.811 124.773C236.87 124.69 236.877 124.578 236.831 124.464L236.788 124.364C236.674 124.106 236.719 123.823 236.903 123.641C237.087 123.459 237.36 123.419 237.618 123.536C237.936 123.68 238.263 123.805 238.59 123.908C238.68 123.936 238.754 123.92 238.791 123.863C238.826 123.811 238.835 123.711 238.744 123.603C238.483 123.291 238.234 122.963 238.003 122.628C237.684 122.166 237.799 121.702 238.056 121.448C238.376 121.13 238.891 121.113 239.307 121.405C239.952 121.859 240.535 122.451 241.098 123.023C241.987 123.926 242.907 124.86 244.066 125.229C244.186 125.268 244.253 125.397 244.215 125.516C244.184 125.615 244.094 125.677 243.997 125.677Z" fill="white"/>
<path d="M240.122 159.165L246.229 148.586H234.015L240.122 159.165Z" fill="#407BFF"/>
<path d="M308.727 128.109C305.809 125.592 302.432 124.593 299.283 124.721C297.056 120.249 292.476 117.629 287.633 118.515C280.689 119.787 278.573 128.131 283.391 131.178C285.048 132.225 286.743 132.972 288.53 133.513C288.521 133.586 288.511 133.659 288.505 133.733C282.737 135.965 278.622 140.99 278.191 147.253C277.479 157.605 288.594 163.65 294.685 157.894C295.542 157.084 296.324 156.244 297.054 155.379C298.221 157.024 299.484 158.706 300.844 160.46C315.957 153.5 318.512 136.549 308.727 128.109Z" fill="#263238"/>
<path d="M278.342 168.335C278.252 169.615 278.137 170.723 277.978 171.895C277.827 173.051 277.652 174.198 277.465 175.345C277.08 177.634 276.565 179.899 276.007 182.156C274.884 186.667 273.373 191.114 271.362 195.396L271.177 195.798C271.103 195.953 271.086 196.011 270.946 196.282C270.718 196.733 270.444 197.167 270.133 197.558C269.516 198.346 268.777 198.972 268.04 199.431C266.549 200.348 265.104 200.74 263.757 200.995C261.062 201.469 258.615 201.329 256.236 201.1C251.489 200.52 247.071 199.418 242.685 197.832L243.687 194.177C245.801 194.497 248.005 194.791 250.156 194.987C252.311 195.208 254.464 195.337 256.556 195.308C258.633 195.313 260.701 195.135 262.39 194.688C263.221 194.465 263.934 194.138 264.317 193.823C264.514 193.67 264.618 193.536 264.672 193.432C264.703 193.38 264.719 193.332 264.733 193.28L264.985 192.627C265.371 191.646 265.743 190.659 266.07 189.647C266.432 188.653 266.724 187.625 267.045 186.612C267.621 184.558 268.189 182.498 268.649 180.4C269.121 178.307 269.504 176.189 269.859 174.069C270.218 171.975 270.497 169.761 270.711 167.781L278.342 168.335Z" fill="#FFB573"/>
<path d="M273.136 159.178C270.052 159.963 267.894 172.655 267.894 172.655L276.393 178.435C276.393 178.435 284.542 165.63 282.17 162.24C279.699 158.709 277.637 158.032 273.136 159.178Z" fill="#263238"/>
<path opacity="0.2" d="M273.415 162.014L271.046 174.806L275.822 178.045L273.415 162.014Z" fill="black"/>
<path d="M240.512 194.299L234.741 196.546L241.255 200.479C241.255 200.479 245.414 198.072 245.313 194.964L244.67 194.6C243.4 193.881 241.873 193.77 240.512 194.299Z" fill="#FFB573"/>
<path opacity="0.1" d="M240.084 194.582C240.084 194.582 238.388 195.163 237.225 195.566C236.227 195.912 235.592 196.224 235.592 196.224C235.592 196.224 237.478 197.011 238.412 196.48C239.679 196.771 242.687 196.223 242.687 196.223L240.084 194.582Z" fill="black"/>
<path d="M231.153 200.802L236.056 204.886L241.255 200.481L234.741 196.547L231.153 200.802Z" fill="#FFB573"/>
<path d="M289.823 372.802H282.34L281.84 355.473H289.323L289.823 372.802Z" fill="#FFB573"/>
<path d="M282.083 371.936H290.49C290.796 371.936 291.044 372.149 291.087 372.446L292.045 379.098C292.144 379.788 291.551 380.44 290.845 380.428C287.913 380.378 286.501 380.206 282.804 380.206C280.53 380.206 273.997 380.443 270.855 380.443C267.783 380.443 267.547 377.337 268.855 377.056C274.719 375.794 278.856 374.055 280.831 372.396C281.189 372.096 281.635 371.936 282.083 371.936Z" fill="#263238"/>
<g opacity="0.2">
<path d="M281.842 355.477L282.098 364.41H289.584L289.328 355.477H281.842Z" fill="black"/>
</g>
<path d="M273.136 159.179C273.136 159.179 269.572 160.435 276.713 204.343C288.773 204.343 301.236 204.343 307.105 204.343C306.595 191.974 306.58 184.347 312.492 158.961C312.492 158.961 306.124 157.576 299.586 157.261C294.473 157.015 290.282 156.852 285.786 157.262C279.859 157.803 273.136 159.179 273.136 159.179Z" fill="#263238"/>
<path d="M294.068 171.223C290.26 171.223 287.161 169.091 287.022 168.994C286.918 168.921 286.893 168.779 286.965 168.676C287.036 168.572 287.18 168.547 287.283 168.619C287.318 168.644 290.838 171.064 294.846 170.734C295.846 170.107 302.736 165.505 303.256 157.549C303.264 157.423 303.382 157.328 303.499 157.336C303.625 157.345 303.72 157.453 303.712 157.58C303.179 165.726 296.395 170.314 295.04 171.152C295.01 171.171 294.976 171.182 294.94 171.184C294.648 171.211 294.355 171.223 294.068 171.223Z" fill="white"/>
<path d="M281.136 169.816C281.094 169.816 281.052 169.804 281.017 169.782C280.446 169.43 280.072 168.696 279.902 167.601C279.47 164.811 280.504 159.942 282.677 157.417C282.76 157.321 282.905 157.311 283 157.393C283.095 157.476 283.107 157.62 283.024 157.716C280.992 160.077 279.939 164.845 280.354 167.532C280.494 168.437 280.787 169.067 281.204 169.36C282.412 169.318 284.866 168.214 284.891 168.203C285.004 168.151 285.141 168.202 285.194 168.318C285.246 168.433 285.194 168.568 285.079 168.62C284.971 168.666 282.416 169.816 281.136 169.816Z" fill="white"/>
<path d="M298.219 141.723C297.348 146.163 296.48 154.299 299.587 157.262C299.587 157.262 298.373 161.766 290.122 161.766C281.05 161.766 285.786 157.262 285.786 157.262C290.738 156.079 290.61 152.405 289.747 148.955L298.219 141.723Z" fill="#FFB573"/>
<path d="M299.583 157.266C294.468 157.014 290.281 156.85 285.784 157.266C285.484 157.295 285.185 157.324 284.885 157.352C283.782 159.441 283.502 162.651 286.142 167.361C286.142 167.361 298.247 162.487 301.4 157.382C300.801 157.333 300.192 157.295 299.583 157.266Z" fill="#FFB573"/>
<path opacity="0.2" d="M294.765 144.674L289.751 148.952C289.958 149.768 290.119 150.597 290.177 151.402C292.069 151.128 294.667 149.052 294.868 147.071C294.968 146.083 294.927 145.134 294.765 144.674Z" fill="black"/>
<path d="M303.009 134.029C301.316 141.26 300.754 144.357 296.424 147.479C289.912 152.176 281.4 148.515 280.898 140.924C280.446 134.091 283.291 123.413 290.939 121.723C298.474 120.057 304.701 126.797 303.009 134.029Z" fill="#FFB573"/>
<path d="M276.713 204.344C276.713 204.344 270.81 261.988 271.301 284.809C271.811 308.545 280.509 362.681 280.509 362.681H290.627C290.627 362.681 289.026 309.932 289.921 286.621C290.896 261.207 298.969 204.345 298.969 204.345L276.713 204.344Z" fill="#1A73E9"/>
<path opacity="0.3" d="M276.713 204.344C276.713 204.344 270.81 261.988 271.301 284.809C271.811 308.545 280.509 362.681 280.509 362.681H290.627C290.627 362.681 289.026 309.932 289.921 286.621C290.896 261.207 298.969 204.345 298.969 204.345L276.713 204.344Z" fill="#1A73E9"/>
<path d="M291.505 363.042H279.632L278.761 359.254L292.057 358.791L291.505 363.042Z" fill="#263238"/>
<path opacity="0.2" d="M289.822 218.687C282.358 233.703 288.323 261.097 290.963 271.289C292.316 255.982 294.599 237.271 296.377 223.531C295.247 215.757 293.264 211.763 289.822 218.687Z" fill="black"/>
<path d="M324.799 372.802H317.316L314.567 355.473H322.051L324.799 372.802Z" fill="#FFB573"/>
<path d="M316.947 371.936H325.354C325.66 371.936 325.936 372.149 326.018 372.446L327.838 379.098C328.027 379.788 327.518 380.44 326.811 380.428C323.873 380.378 322.438 380.206 318.741 380.206C316.467 380.206 309.965 380.443 306.824 380.443C303.752 380.443 303.112 377.337 304.384 377.056C310.085 375.794 313.995 374.055 315.755 372.396C316.073 372.096 316.499 371.936 316.947 371.936Z" fill="#263238"/>
<g opacity="0.2">
<path d="M314.569 355.477L315.984 364.41H323.471L322.056 355.477H314.569Z" fill="black"/>
</g>
<path d="M285.12 204.344C285.12 204.344 291.405 261.988 294.856 284.809C298.447 308.545 314.17 362.681 314.17 362.681H324.289C324.289 362.681 315.842 309.932 313.711 286.621C311.388 261.207 307.375 204.345 307.375 204.345L285.12 204.344Z" fill="#407BFF"/>
<path opacity="0.3" d="M285.12 204.344C285.12 204.344 291.405 261.988 294.856 284.809C298.447 308.545 314.17 362.681 314.17 362.681H324.289C324.289 362.681 315.842 309.932 313.711 286.621C311.388 261.207 307.375 204.345 307.375 204.345L285.12 204.344Z" fill="#1A73E9"/>
<path d="M325.214 363.042H313.341L311.979 359.254L325.214 358.791V363.042Z" fill="#263238"/>
<path d="M314.307 373.244C313.563 373.244 312.862 373.129 312.432 372.783C312.16 372.564 312.015 372.273 312 371.92C311.992 371.709 312.075 371.546 312.24 371.449C313.09 370.947 316.272 372.47 316.631 372.645C316.703 372.68 316.75 372.753 316.749 372.827C316.748 372.902 316.7 372.961 316.628 372.976C316.008 373.103 315.131 373.244 314.307 373.244ZM312.772 371.695C312.635 371.695 312.525 371.716 312.45 371.759C312.382 371.8 312.353 371.858 312.357 371.951C312.367 372.191 312.458 372.376 312.634 372.519C313.142 372.927 314.382 372.999 316.005 372.723C314.915 372.231 313.482 371.695 312.772 371.695Z" fill="#407BFF"/>
<path d="M316.594 372.979C316.57 372.979 316.544 372.974 316.519 372.963C315.575 372.56 313.601 370.946 313.629 370.099C313.636 369.898 313.746 369.648 314.231 369.599C314.588 369.562 314.933 369.665 315.252 369.905C316.294 370.689 316.729 372.703 316.746 372.788C316.759 372.851 316.739 372.911 316.692 372.947C316.665 372.968 316.63 372.979 316.594 372.979ZM314.417 369.945C314.382 369.945 314.347 369.947 314.311 369.951C313.992 369.984 313.987 370.113 313.986 370.156C313.968 370.665 315.331 371.934 316.312 372.485C316.148 371.898 315.742 370.689 315.059 370.176C314.853 370.022 314.642 369.945 314.417 369.945Z" fill="#407BFF"/>
<path d="M291.023 133.983C290.922 134.578 290.524 135.007 290.136 134.941C289.746 134.875 289.513 134.339 289.615 133.744C289.716 133.149 290.114 132.72 290.502 132.786C290.891 132.852 291.125 133.388 291.023 133.983Z" fill="#263238"/>
<path d="M284.298 132.839C284.196 133.434 283.799 133.862 283.41 133.797C283.021 133.731 282.788 133.194 282.889 132.599C282.991 132.004 283.389 131.576 283.777 131.641C284.166 131.708 284.399 132.244 284.298 132.839Z" fill="#263238"/>
<path d="M283.943 131.704L282.584 131.049C282.584 131.049 283.127 132.29 283.943 131.704Z" fill="#263238"/>
<path d="M286.189 134.264C286.189 134.264 284.743 136.654 283.421 137.7C284.082 138.568 285.475 138.46 285.475 138.46L286.189 134.264Z" fill="#ED893E"/>
<path d="M288.323 141.343C288.041 141.338 287.746 141.313 287.435 141.26C287.339 141.243 287.274 141.152 287.29 141.055C287.307 140.958 287.406 140.895 287.494 140.91C290.114 141.355 291.635 139.738 291.651 139.721C291.718 139.649 291.829 139.645 291.901 139.711C291.973 139.778 291.977 139.89 291.911 139.962C291.852 140.028 290.573 141.378 288.323 141.343Z" fill="#263238"/>
<path d="M306.536 122.768C305.639 122.137 304.663 121.746 303.673 121.544C302.841 114.415 297.129 109.882 290.763 111.315C283.538 112.941 281.023 121.903 285.881 124.956C288.774 126.774 291.818 127.639 295.298 128.017C295.419 133.927 299.105 138.994 301.694 139.254C309.083 136.313 310.988 125.9 306.536 122.768Z" fill="#263238"/>
<path d="M303.848 141.065C303.085 142.402 301.776 143.263 300.551 143.578C298.707 144.051 297.826 142.392 298.372 140.673C298.864 139.126 300.415 137.016 302.249 137.304C304.056 137.589 304.72 139.535 303.848 141.065Z" fill="#FFB573"/>
<path d="M293.957 133.073C293.807 133.071 293.67 132.974 293.624 132.824C293.141 131.256 291.138 130.588 291.118 130.581C290.932 130.521 290.83 130.32 290.89 130.134C290.951 129.948 291.15 129.845 291.337 129.906C291.434 129.938 293.711 130.7 294.302 132.614C294.359 132.801 294.254 132.999 294.068 133.057C294.03 133.069 293.993 133.073 293.957 133.073Z" fill="#263238"/>
<path d="M282.806 129.387C282.686 129.385 282.569 129.321 282.504 129.209C282.407 129.039 282.465 128.822 282.635 128.725C284.335 127.75 285.802 128.478 285.864 128.509C286.038 128.598 286.107 128.812 286.018 128.987C285.929 129.16 285.717 129.23 285.543 129.142C285.494 129.118 284.346 128.563 282.988 129.341C282.931 129.373 282.868 129.388 282.806 129.387Z" fill="#263238"/>
<path d="M315.99 167.676C316.866 171.977 317.504 176.215 318.018 180.534C318.546 184.842 318.889 189.185 318.953 193.612C318.963 193.833 318.957 194.286 318.94 194.692C318.912 195.067 318.876 195.427 318.826 195.764C318.724 196.428 318.601 197.045 318.451 197.631C318.153 198.803 317.809 199.895 317.439 200.961C316.707 203.091 315.845 205.108 314.967 207.104C313.149 211.072 311.22 214.91 309.016 218.662L305.58 217.065L307.614 211.052C308.303 209.055 308.961 207.053 309.572 205.05C310.207 203.059 310.782 201.059 311.286 199.106C311.534 198.131 311.745 197.162 311.893 196.249C311.967 195.792 312.024 195.358 312.055 194.965C312.069 194.773 312.07 194.6 312.072 194.444L312.032 193.925C311.868 191.88 311.624 189.817 311.38 187.752L310.524 181.54C309.889 177.408 309.186 173.22 308.479 169.14L315.99 167.676Z" fill="#FFB573"/>
<path d="M312.492 158.962C315.536 159.888 319.194 170.373 319.194 170.373L307.381 178.819C307.381 178.819 303.072 170.067 304.352 166.131C305.684 162.033 309.018 157.906 312.492 158.962Z" fill="#263238"/>
<path d="M279.274 373.244C278.53 373.244 277.844 373.129 277.459 372.783C277.215 372.564 277.107 372.273 277.139 371.92C277.158 371.709 277.263 371.546 277.44 371.449C278.356 370.947 281.34 372.47 281.676 372.645C281.743 372.68 281.781 372.753 281.771 372.827C281.76 372.902 281.704 372.961 281.63 372.976C280.994 373.103 280.098 373.244 279.274 373.244ZM277.94 371.695C277.803 371.695 277.69 371.716 277.609 371.759C277.536 371.8 277.499 371.858 277.492 371.951C277.47 372.191 277.537 372.376 277.696 372.519C278.149 372.927 279.381 372.999 281.04 372.723C280.013 372.231 278.649 371.695 277.94 371.695Z" fill="#407BFF"/>
<path d="M281.595 372.979C281.57 372.979 281.546 372.974 281.522 372.963C280.63 372.56 278.865 370.946 279.004 370.099C279.037 369.898 279.178 369.648 279.669 369.599C280.032 369.562 280.363 369.665 280.651 369.905C281.591 370.689 281.764 372.703 281.771 372.788C281.776 372.851 281.749 372.911 281.696 372.947C281.666 372.968 281.631 372.979 281.595 372.979ZM279.812 369.945C279.777 369.945 279.741 369.947 279.705 369.951C279.381 369.984 279.36 370.113 279.353 370.156C279.27 370.665 280.468 371.934 281.377 372.485C281.289 371.898 281.04 370.689 280.422 370.176C280.238 370.022 280.037 369.945 279.812 369.945Z" fill="#407BFF"/>
<path d="M290.668 132.849L289.309 132.193C289.309 132.193 289.853 133.435 290.668 132.849Z" fill="#263238"/>
<path d="M307.56 202.561L308.337 205.281C308.443 205.492 308.193 205.707 307.841 205.707H276.562C276.287 205.707 276.061 205.572 276.043 205.4L275.769 202.68C275.75 202.492 275.988 202.332 276.287 202.332H307.064C307.291 202.332 307.491 202.425 307.56 202.561Z" fill="#407BFF"/>
<path d="M303.426 206.001H304.25C304.415 206.001 304.539 205.916 304.528 205.813L304.142 202.278C304.131 202.175 303.987 202.09 303.823 202.09H302.998C302.834 202.09 302.709 202.175 302.72 202.278L303.107 205.813C303.119 205.917 303.262 206.001 303.426 206.001Z" fill="#407BFF"/>
<g opacity="0.3">
<path d="M303.426 206.001H304.25C304.415 206.001 304.539 205.916 304.528 205.813L304.142 202.278C304.131 202.175 303.987 202.09 303.823 202.09H302.998C302.834 202.09 302.709 202.175 302.72 202.278L303.107 205.813C303.119 205.917 303.262 206.001 303.426 206.001Z" fill="white"/>
</g>
<path d="M278.879 206.001H279.703C279.868 206.001 279.992 205.916 279.981 205.813L279.594 202.278C279.583 202.175 279.44 202.09 279.275 202.09H278.451C278.286 202.09 278.162 202.175 278.173 202.278L278.56 205.813C278.572 205.917 278.715 206.001 278.879 206.001Z" fill="#407BFF"/>
<path opacity="0.3" d="M278.879 206.001H279.703C279.868 206.001 279.992 205.916 279.981 205.813L279.594 202.278C279.583 202.175 279.44 202.09 279.275 202.09H278.451C278.286 202.09 278.162 202.175 278.173 202.278L278.56 205.813C278.572 205.917 278.715 206.001 278.879 206.001Z" fill="white"/>
<path d="M291.153 206.001H291.977C292.142 206.001 292.266 205.916 292.255 205.813L291.868 202.278C291.857 202.175 291.713 202.09 291.549 202.09H290.725C290.56 202.09 290.436 202.175 290.447 202.278L290.834 205.813C290.845 205.917 290.988 206.001 291.153 206.001Z" fill="#407BFF"/>
<path opacity="0.3" d="M291.153 206.001H291.977C292.142 206.001 292.266 205.916 292.255 205.813L291.868 202.278C291.857 202.175 291.713 202.09 291.549 202.09H290.725C290.56 202.09 290.436 202.175 290.447 202.278L290.834 205.813C290.845 205.917 290.988 206.001 291.153 206.001Z" fill="white"/>
<path d="M305.701 216.344L299.9 221.975L307.471 222.734C307.471 222.734 310.197 218.777 308.772 216.012L305.701 216.344Z" fill="#FFB573"/>
<path d="M299.045 228.208L305.419 228.501L307.472 222.734L299.9 221.975L299.045 228.208Z" fill="#FFB573"/>
<path d="M151.086 373.93C151.947 373.93 152.797 373.812 153.133 373.425C153.25 373.29 153.361 373.058 153.222 372.729C153.143 372.545 152.993 372.42 152.772 372.357C151.7 372.053 149.157 373.391 149.049 373.448C148.987 373.481 148.945 373.547 148.947 373.611C148.948 373.677 148.991 373.728 149.054 373.742C149.47 373.827 150.283 373.93 151.086 373.93ZM152.342 372.628C152.453 372.628 152.556 372.639 152.644 372.665C152.785 372.705 152.877 372.777 152.923 372.888C153.007 373.085 152.952 373.183 152.903 373.239C152.527 373.674 150.827 373.683 149.605 373.507C150.274 373.186 151.558 372.628 152.342 372.628Z" fill="#407BFF"/>
<path d="M149.084 373.746C149.106 373.746 149.129 373.742 149.151 373.733C150.015 373.369 151.834 371.917 151.823 371.158C151.82 370.98 151.727 370.757 151.296 370.714C150.976 370.681 150.666 370.772 150.374 370.986C149.416 371.687 148.97 373.496 148.951 373.573C148.937 373.629 148.955 373.684 148.996 373.717C149.02 373.736 149.051 373.746 149.084 373.746ZM151.123 371.024C151.154 371.024 151.186 371.026 151.218 371.029C151.499 371.058 151.501 371.171 151.502 371.208C151.508 371.663 150.25 372.805 149.349 373.302C149.514 372.774 149.912 371.692 150.54 371.232C150.73 371.093 150.921 371.024 151.123 371.024Z" fill="#407BFF"/>
<path d="M141.725 373.587H148.439L151.395 358.037H144.68L141.725 373.587Z" fill="#B55B52"/>
<path d="M148.51 372.809H141.177C140.902 372.809 140.636 373 140.538 373.267L138.333 379.236C138.105 379.855 138.488 380.441 139.124 380.43C141.775 380.386 145.62 380.23 148.945 380.23C152.832 380.23 152.476 380.442 157.035 380.442C159.792 380.442 160.966 377.656 159.851 377.403C154.767 376.254 154.177 376.131 150.05 373.332C149.602 373.028 149.089 372.809 148.51 372.809Z" fill="#263238"/>
<path opacity="0.2" d="M151.392 358.041L149.87 366.056H143.153L144.675 358.041H151.392Z" fill="black"/>
<path d="M151.898 206.064L156.293 210.682L149.203 213.155C149.203 213.155 146.623 209.389 148.607 206.812L151.898 206.064Z" fill="#B55B52"/>
<path d="M157.614 217.133L150.591 218.155L149.203 213.155L156.293 210.682L157.614 217.133Z" fill="#B55B52"/>
<path d="M125.551 244.371L159.806 245.876C161.405 245.947 162.952 244.717 163.263 243.129L167.362 222.199C167.673 220.612 166.629 219.268 165.032 219.198L130.775 217.692C129.177 217.622 127.629 218.852 127.318 220.44L123.219 241.37C122.909 242.957 123.952 244.302 125.551 244.371Z" fill="#263238"/>
<path d="M127.898 250.802L170.21 252.662C172.184 252.748 173.921 251.221 174.091 249.251L176.332 223.275C176.502 221.304 175.039 219.637 173.065 219.55L130.753 217.691C128.779 217.604 127.041 219.131 126.871 221.102L124.631 247.078C124.461 249.048 125.924 250.716 127.898 250.802Z" fill="#407BFF"/>
<path opacity="0.2" d="M127.898 250.802L170.21 252.662C172.184 252.748 173.921 251.221 174.091 249.251L176.332 223.275C176.502 221.304 175.039 219.637 173.065 219.55L130.753 217.691C128.779 217.604 127.041 219.131 126.871 221.102L124.631 247.078C124.461 249.048 125.924 250.716 127.898 250.802Z" fill="black"/>
<path d="M158.943 226.403C158.908 226.403 158.873 226.402 158.838 226.401L146.548 225.86C145.895 225.832 145.299 225.547 144.871 225.059C144.442 224.571 144.237 223.943 144.293 223.292L144.776 217.69C144.98 215.325 147.074 213.488 149.447 213.59L157.666 213.951C158.883 214.005 159.991 214.533 160.787 215.44C161.583 216.347 161.964 217.515 161.859 218.729L161.391 224.16C161.284 225.418 160.196 226.403 158.943 226.403ZM147.06 223.139L158.683 223.65L159.127 218.494C159.168 218.031 159.025 217.59 158.727 217.25C158.429 216.91 158.01 216.711 157.546 216.691L149.327 216.33C148.411 216.293 147.586 217.021 147.509 217.927L147.06 223.139Z" fill="#407BFF"/>
<path d="M174.741 252.86L132.429 251.001C130.455 250.914 128.82 249.239 128.776 247.259L128.205 221.16C128.162 219.18 129.727 217.645 131.701 217.732L174.013 219.591C175.987 219.678 177.622 221.353 177.666 223.333L178.237 249.432C178.28 251.412 176.716 252.947 174.741 252.86Z" fill="#5F9DF0"/>
<path d="M162.207 154.942C161.758 155.82 161.232 156.894 160.753 157.896C160.265 158.915 159.794 159.948 159.334 160.984C158.41 163.055 157.525 165.14 156.723 167.239C155.925 169.339 155.206 171.441 154.556 173.534C154.251 174.581 153.949 175.628 153.713 176.661C153.575 177.183 153.461 177.699 153.371 178.208L153.219 178.975C153.167 179.232 153.11 179.504 153.099 179.68C153.054 180.084 152.981 180.448 152.969 180.987C152.946 181.486 152.898 181.972 152.898 182.529C152.861 183.594 152.879 184.725 152.89 185.848C152.944 188.125 153.074 190.443 153.211 192.777C153.483 197.443 153.873 202.187 154.238 206.865L145.86 208.22C144.735 203.461 143.836 198.737 143.031 193.91C142.65 191.495 142.322 189.059 142.042 186.57C141.919 185.309 141.791 184.056 141.72 182.731C141.668 182.094 141.658 181.386 141.653 180.691C141.628 180.035 141.683 179.209 141.733 178.423C141.753 178.002 141.799 177.685 141.841 177.352L141.968 176.351C142.045 175.677 142.145 175.019 142.267 174.373C142.477 173.061 142.752 171.79 143.034 170.52C143.62 168 144.304 165.531 145.109 163.132C145.909 160.731 146.764 158.365 147.708 156.039C148.185 154.878 148.675 153.724 149.187 152.575C149.701 151.404 150.208 150.324 150.837 149.07L162.207 154.942Z" fill="#1A73E9"/>
<path d="M180.522 202.789C180.522 202.789 174.063 252.992 170.322 273.469C166.43 294.767 152.601 364.504 152.601 364.504H141.227C141.227 364.504 147.016 296.012 149.586 275.095C152.388 252.291 156.915 202.79 156.915 202.79H180.522V202.789Z" fill="#263238"/>
<path d="M155.456 359.973C155.508 359.973 154.119 364.695 154.119 364.695H140.283L140.529 360.481L155.456 359.973Z" fill="#407BFF"/>
<path d="M186.027 119.416C186.027 119.984 186.329 120.446 186.7 120.446C187.072 120.446 187.373 119.985 187.373 119.416C187.373 118.846 187.071 118.387 186.7 118.387C186.329 118.386 186.027 118.846 186.027 119.416Z" fill="#263238"/>
<path d="M186.277 120.445C186.277 120.445 187.57 123.726 188.993 125.309C187.987 126.247 186.277 125.819 186.277 125.819V120.445Z" fill="#A02724"/>
<path d="M184.013 116.264C184.08 116.264 184.149 116.244 184.207 116.201C185.416 115.331 186.568 115.761 186.58 115.765C186.752 115.832 186.946 115.746 187.013 115.574C187.079 115.402 186.993 115.208 186.822 115.142C186.761 115.118 185.317 114.579 183.818 115.659C183.668 115.767 183.634 115.975 183.742 116.125C183.807 116.216 183.91 116.264 184.013 116.264Z" fill="#263238"/>
<path d="M168.026 125.699C168.989 130.611 169.95 139.612 166.513 142.89C166.513 142.89 167.856 147.873 176.984 147.873C187.021 147.873 181.781 142.891 181.781 142.891C176.303 141.583 176.445 137.518 177.399 133.702L168.026 125.699Z" fill="#B55B52"/>
<path d="M165.198 144.599C164.479 143.022 163.686 141.217 165.325 140.652C167.127 140.029 176.995 139.395 180.397 140.563C183.799 141.731 182.834 144.93 182.834 144.93L165.198 144.599Z" fill="#263238"/>
<path d="M153.29 144.817C147.41 147.484 143.752 167.719 143.752 167.719L155.277 171.375C155.277 171.375 158.916 162.965 160.913 154.912C163.005 146.474 159.302 142.09 153.29 144.817Z" fill="#1A73E9"/>
<path d="M224.811 194.924L231.896 194.938L230.655 203.425C230.655 203.425 225.099 203.22 222.581 199.029L224.811 194.924Z" fill="#B55B52"/>
<path d="M238.611 197.873L235.044 204.427L230.656 203.426L231.896 194.939L238.611 197.873Z" fill="#B55B52"/>
<path d="M167.062 118.211C167.49 125.195 167.387 129.304 170.914 132.888C176.22 138.28 184.84 135.081 186.506 128.11C188.006 121.836 187.053 111.469 180.217 108.69C173.482 105.952 166.633 111.227 167.062 118.211Z" fill="#B55B52"/>
<path d="M166.258 127.707C166.258 127.707 159.927 118.217 161.3 112.033C162.557 106.368 175.324 104.352 180.626 104.923C186.251 105.529 188.45 107.954 185.356 112.833C182.172 114.313 179.644 114.768 179.644 114.768C179.644 114.768 182.786 118.618 182.808 121.142C181.929 121.622 179.074 122.754 179.074 122.754C179.074 122.754 175.067 132.628 174.948 132.613C173.402 132.426 169.829 132.373 168.557 132.855C167.351 130.853 166.258 127.707 166.258 127.707Z" fill="#263238"/>
<path d="M176.298 121.759C176.759 123.515 177.921 125.038 179.136 125.951C180.963 127.324 182.324 126.021 182.19 123.972C182.07 122.127 180.974 119.19 178.961 118.613C176.977 118.044 175.772 119.75 176.298 121.759Z" fill="#B55B52"/>
<path opacity="0.3" d="M175.685 221.555C166.691 223.639 168.391 256.141 170.1 274.667C170.173 274.247 170.246 273.854 170.319 273.47C172.55 261.277 175.74 238.555 177.961 222.158C177.22 221.82 176.251 221.418 175.685 221.555Z" fill="black"/>
<path d="M184.373 373.93C185.234 373.93 186.067 373.812 186.345 373.425C186.443 373.29 186.52 373.058 186.333 372.729C186.228 372.545 186.058 372.42 185.828 372.357C184.711 372.053 182.364 373.391 182.264 373.448C182.207 373.481 182.176 373.547 182.187 373.611C182.198 373.677 182.247 373.728 182.313 373.742C182.742 373.827 183.57 373.93 184.373 373.93ZM185.438 372.628C185.549 372.628 185.654 372.639 185.745 372.665C185.891 372.705 185.994 372.777 186.057 372.888C186.169 373.085 186.129 373.183 186.088 373.239C185.775 373.674 184.078 373.683 182.829 373.507C183.452 373.186 184.653 372.628 185.438 372.628Z" fill="#407BFF"/>
<path d="M182.344 373.744C182.366 373.744 182.388 373.74 182.409 373.731C183.22 373.367 184.825 371.915 184.702 371.156C184.674 370.978 184.547 370.755 184.11 370.712C183.785 370.679 183.488 370.77 183.228 370.984C182.373 371.685 182.192 373.494 182.186 373.571C182.18 373.627 182.205 373.682 182.252 373.715C182.279 373.734 182.311 373.744 182.344 373.744ZM183.983 371.022C184.014 371.022 184.046 371.024 184.078 371.027C184.364 371.056 184.382 371.169 184.389 371.206C184.463 371.661 183.371 372.803 182.544 373.3C182.63 372.772 182.87 371.69 183.431 371.23C183.599 371.091 183.781 371.022 183.983 371.022Z" fill="#407BFF"/>
<path d="M174.96 373.585H181.676L182.344 358.035H175.629L174.96 373.585Z" fill="#B55B52"/>
<path d="M181.631 372.809H174.298C174.024 372.809 173.786 373 173.727 373.267L172.4 379.236C172.263 379.855 172.733 380.441 173.366 380.43C176.012 380.386 179.834 380.23 183.158 380.23C187.045 380.23 190.403 380.442 194.962 380.442C197.718 380.442 198.483 377.656 197.329 377.403C192.076 376.254 187.788 376.131 183.248 373.332C182.755 373.028 182.21 372.809 181.631 372.809Z" fill="#263238"/>
<path opacity="0.2" d="M182.343 358.041L181.999 366.056H175.281L175.625 358.041H182.343Z" fill="black"/>
<path d="M192.506 202.789C192.506 202.789 193.431 252.992 192.7 273.469C191.941 294.767 184.502 364.504 184.502 364.504H173.127C173.127 364.504 172.709 296.012 172.204 275.095C171.652 252.291 168.899 202.79 168.899 202.79H192.506V202.789Z" fill="#263238"/>
<path d="M186.69 359.973C186.742 359.973 186.048 364.695 186.048 364.695H172.211L171.837 360.481L186.69 359.973Z" fill="#407BFF"/>
<path d="M192.108 144.752C192.108 144.752 200.164 157.038 193.415 207.001C182.594 207.001 160.746 207.001 155.481 207.001C155.233 201.488 159.809 170.383 154.492 144.406C154.492 144.406 160.647 143.17 166.514 142.888C171.103 142.667 177.747 142.521 181.78 142.889C187.099 143.374 192.108 144.752 192.108 144.752Z" fill="#1A73E9"/>
<path opacity="0.2" d="M196.104 170.315L188.152 157.135C188.152 157.135 191.141 175.817 195.72 184.244C196.031 178.97 196.141 174.345 196.104 170.315Z" fill="black"/>
<path d="M199.5 154.369C200.808 158.541 202.254 162.821 203.711 167.002C205.195 171.189 206.719 175.352 208.402 179.343L209.042 180.826C209.185 181.165 209.169 181.095 209.182 181.165C209.196 181.219 209.277 181.328 209.31 181.414C209.582 181.843 210.102 182.469 210.725 183.077C212 184.315 213.635 185.569 215.352 186.745C217.073 187.933 218.894 189.087 220.766 190.179C222.62 191.267 224.581 192.38 226.429 193.335L222.869 201.638C218.332 199.939 214.106 198.072 209.808 195.677C207.675 194.456 205.554 193.136 203.405 191.393C202.333 190.498 201.236 189.512 200.156 188.116C199.881 187.727 199.616 187.383 199.352 186.942C199.096 186.513 198.791 185.955 198.708 185.773L197.904 184.175C195.812 179.912 193.937 175.654 192.213 171.352C190.459 167.044 188.873 162.77 187.33 158.326L199.5 154.369Z" fill="#1A73E9"/>
<path d="M183.147 147.783C180.803 153.76 195.087 177.824 195.087 177.824L204.379 168.939C204.379 168.939 202.348 161.372 199.642 152.275C196.98 143.325 185.388 142.07 183.147 147.783Z" fill="#1A73E9"/>
</svg>
